<?xml version="1.0" encoding="UTF-8"?>
<svg id="Layer_1" data-name="Layer 1" xmlns="http://www.w3.org/2000/svg" viewBox="0 0 272.99 265.58">
  <defs>
    <style>
      .cls-1 {
        fill: #bf2025;
      }

      .cls-1, .cls-2 {
        stroke-width: 0px;
      }

      .cls-2 {
        fill: #404040;
      }
    </style>
  </defs>
  <g>
    <path class="cls-1" d="M37.4,6.59c-15.91,5.79-10.69,19.79-5.8,30.23,5.01,10.71,16.09,24.26,6.33,37.6,34.36-18.26-15.3-46.82-.52-67.83"/>
    <path class="cls-1" d="M33.32,0c-8.32,1.86-16.33,6.46-20.78,12.98-7.52,11.05-3.67,23.19,1.46,34.54,8.78,19.43,24.07,43.52,1.89,60.1,12.22-4.83,22.11-13.98,24.56-26.41,2.27-11.48-3.01-22.12-8.04-32.48-5.3-10.93-14.17-22.95-9.88-35.03,1.91-5.34,5.84-10.26,10.79-13.69"/>
    <path class="cls-1" d="M10.41,33.34c-4.59,2.67-7.94,7.04-9.56,11.67-2.71,7.75,1.69,14.82,4.88,21.96,3.11,6.96,9.01,14.5,9,21.96-.01,10.34-4.52,14.56-4.52,14.56,0,0,8.23-3.82,11.76-10.01,3.24-5.67,2.09-12.61-.02-18.42-4.69-12.88-18.92-26.81-11.53-41.72"/>
  </g>
  <path class="cls-2" d="M62.57,125.98v51.42c0,8.6.59,14.27,1.79,17.04,1.19,2.77,3.66,4.16,7.42,4.16,5.62,0,10.14-3.29,13.55-9.88l12.53,3.97c-6.48,15.23-20.33,22.85-41.55,22.85-11.68,0-20.46-2.67-26.34-8.01-5.88-5.34-8.82-13.34-8.82-24.01v-57.54H5.9v-12.96l3.2.12c10.33,0,19.18-3.08,26.52-9.26,7.35-6.18,11.79-14.04,13.33-23.58h13.62v32.72h31.47v12.96h-31.47Z"/>
  <path class="cls-2" d="M125.95,129.82v56.86c0,5.94.98,10.1,2.94,12.47,1.96,2.37,6.49,3.55,13.56,3.55h15.94v12.7H58.35l5.21-12.7h4.48c7.25,0,11.81-1.21,13.69-3.61,1.87-2.41,2.81-6.54,2.81-12.41v-56.86h-38.1l1.36-13.41,36.74.45c0-12.18.41-21.89,1.53-29.07,1.03-6.56,3.84-12.83,8.43-18.79,4.59-5.97,11.07-10.73,19.41-14.29,8.35-3.56,18.35-5.35,30.02-5.35,13.45,0,23.63,2.17,30.53,6.5,6.9,4.33,10.35,9.87,10.35,16.61,0,4.73-1.86,8.85-5.56,12.34-3.7,3.49-8.15,5.23-13.35,5.23-10.04,0-16.69-6.01-19.92-18.04-1.53-5.93-4.63-8.91-9.31-8.91-3.82,0-6.57,1.84-8.23,5.53-1.66,3.68-2.49,10.04-2.49,19.08v29.17h23.3v12.96h-23.3Z"/>
  <path class="cls-2" d="M170.8,167.58c-9.29-2.29-16.52-6.57-21.68-12.88-5.16-6.29-7.74-13.03-7.74-20.23,0-11.52,5.2-20.29,15.59-26.29,10.39-6.01,23.77-9.02,40.12-9.02,9.04,0,16.93.89,23.71,2.67,6.77,1.78,12.41,4.45,16.93,8,8.95-7.2,16.44-10.8,22.49-10.8,8.52,0,12.78,3.97,12.78,11.91,0,6.71-2.94,10.07-8.82,10.07-2.13,0-5.06-1.51-8.82-4.54-1.45-1.14-2.81-1.72-4.09-1.72-1.79,0-3.74.94-5.87,2.82,3.23,5.06,4.85,10.72,4.85,17,0,9.87-4.09,18.26-12.26,25.19-8.26,7.01-22.95,10.93-44.07,11.74-8.85.33-14.98,1.22-18.39,2.69-3.4,1.47-5.1,3.76-5.1,6.87,0,4.33,5.53,6.49,16.61,6.49,2.38,0,7.88-.16,16.48-.49,2.98-.08,6.01-.12,9.07-.12,18.58,0,31.99,2.79,40.25,8.34,8.27,5.56,12.39,14.51,12.39,26.86s-5.74,23.29-17.24,31.34c-11.5,8.05-28.91,12.08-52.24,12.08s-37.27-2.7-45.36-8.09c-8.08-5.39-12.13-11.48-12.13-18.26,0-4.25,1.46-7.72,4.39-10.42,2.93-2.7,6.3-4.04,10.12-4.04,3.06,0,6.67.94,10.83,2.82-.59,1.47-1.07,2.88-1.41,4.24-.34,1.35-.51,2.6-.51,3.74,0,5.74,2.98,10.03,8.94,12.9,5.97,2.87,14.91,4.3,26.83,4.3,14.83,0,25.92-2,33.29-6.01,7.36-4.01,11.04-8.91,11.04-14.72,0-5.48-2.51-8.96-7.53-10.42-5.02-1.47-16.55-2.21-34.6-2.21-19.75,0-32.37.04-45.95-3.15-9.26-2.18-9.33-13.51-9.33-23,0-6.63,2.21-12.09,6.64-16.4,4.42-4.29,11.02-7.38,19.78-9.27ZM181.16,133.46c0,7.85,1.3,13.76,3.89,17.72,2.6,3.96,6.45,5.94,11.56,5.94s8.63-2.04,11.1-6.12c2.47-4.09,3.7-10.21,3.7-18.39,0-7.1-1.49-12.25-4.46-15.44-2.98-3.18-6.55-4.78-10.73-4.78-5.01,0-8.78,1.76-11.29,5.27-2.52,3.52-3.77,8.79-3.77,15.81Z"/>
</svg>