<svg id="Layer_1" data-name="Layer 1" xmlns="http://www.w3.org/2000/svg" viewBox="0 0 493.93 246.47"><defs><style>.cls-1{fill:#006343;}.cls-2{fill:#faaf40;}</style></defs><title>Artboard 1</title><path class="cls-1" d="M116.1,61.19c-7.67,0-13.67-1.16-17.83-3.47a11.9,11.9,0,0,1-5.52-6,22.38,22.38,0,0,1-1.42-8.33V19.62a1.31,1.31,0,0,0,0-.31,2.72,2.72,0,0,0-.89-.34l-1.26-.31v-4H107v4l-1.29.3a2.6,2.6,0,0,0-.86.31,1.38,1.38,0,0,0,0,.33V40.79a22.79,22.79,0,0,0,.39,5A4.37,4.37,0,0,0,106.44,48c1.85,1.79,5.23,2.7,10,2.7s8.21-.91,10.06-2.7a4.37,4.37,0,0,0,1.19-2.15,22,22,0,0,0,.39-5V19.62a1.51,1.51,0,0,0,0-.32,3.13,3.13,0,0,0-.89-.33l-1.26-.32V14.7H143v4l-1.26.31a2.6,2.6,0,0,0-.89.34.82.82,0,0,0,0,.31V43.4c0,4.86-1,8.62-3.1,11.15C134.05,59,127,61.19,116.1,61.19Z"/><path class="cls-2" d="M93,19.62V43.4a20.6,20.6,0,0,0,1.3,7.71,10.25,10.25,0,0,0,4.77,5.16q5.91,3.25,17,3.26,15.39,0,20.31-6,2.73-3.36,2.73-10.1V19.62a2,2,0,0,1,.47-1.46,3.58,3.58,0,0,1,1.71-.8v-1H127.6v1a3.58,3.58,0,0,1,1.71.8,2,2,0,0,1,.48,1.46V40.79a23.77,23.77,0,0,1-.45,5.42,6.11,6.11,0,0,1-1.64,2.94q-3.27,3.16-11.22,3.17t-11.2-3.17a6.15,6.15,0,0,1-1.67-2.94,24.5,24.5,0,0,1-.44-5.42V19.62a2.07,2.07,0,0,1,.48-1.47,3.41,3.41,0,0,1,1.7-.79v-1H90.81v1a3.58,3.58,0,0,1,1.71.8A2,2,0,0,1,93,19.62"/><path class="cls-1" d="M177.08,60.45H159.21v-4l1.26-.32a3,3,0,0,0,.89-.33,1.42,1.42,0,0,0,0-.32V25h-12.8a1.65,1.65,0,0,0-.54.07,2.18,2.18,0,0,0-.32.73L147.37,27h-4V12.71h4l.38,1.14a2.44,2.44,0,0,0,.36.78,1.34,1.34,0,0,0,.51.07h39.08a1.5,1.5,0,0,0,.57-.08,2.32,2.32,0,0,0,.32-.73l.36-1.18h4V27h-4l-.36-1.19a2.45,2.45,0,0,0-.32-.73,1.74,1.74,0,0,0-.57-.07H174.9v30.5a1.34,1.34,0,0,0,0,.32,3,3,0,0,0,.89.33l1.26.32Z"/><path class="cls-2" d="M190.16,25.34h1.09v-11h-1.09a3.07,3.07,0,0,1-.89,1.56,2.54,2.54,0,0,1-1.6.43H148.59a2.39,2.39,0,0,1-1.55-.43,3.3,3.3,0,0,1-.91-1.56H145v11h1.09a3.11,3.11,0,0,1,.89-1.56,2.53,2.53,0,0,1,1.57-.43h14.47V55.52a2,2,0,0,1-.48,1.46,3.68,3.68,0,0,1-1.7.81v1h14.53v-1a3.58,3.58,0,0,1-1.7-.81,2,2,0,0,1-.48-1.46V23.35h14.44a2.61,2.61,0,0,1,1.6.43,3.11,3.11,0,0,1,.89,1.56"/><path class="cls-1" d="M231.25,60.45v-4l1.29-.3a2.31,2.31,0,0,0,.86-.33,1,1,0,0,0,0-.29V41.93H209.91V55.55a.76.76,0,0,0,0,.29,2.31,2.31,0,0,0,.86.33l1.28.3v4H194.22v-4l1.26-.32a3,3,0,0,0,.9-.33,1.16,1.16,0,0,0,0-.29v-36a1.05,1.05,0,0,0,0-.28,3.32,3.32,0,0,0-.9-.34l-1.26-.32V14.7h17.87v4L210.8,19a2.64,2.64,0,0,0-.85.3.82.82,0,0,0,0,.31v12h23.52v-12a1.16,1.16,0,0,0,0-.31,2.67,2.67,0,0,0-.85-.3l-1.3-.29v-4h17.87v3.95l-1.26.32a3,3,0,0,0-.89.34,1.12,1.12,0,0,0,0,.28v36a1.16,1.16,0,0,0,0,.29,3,3,0,0,0,.89.33l1.26.32v4Z"/><path class="cls-2" d="M210.43,57.79a3.46,3.46,0,0,1-1.69-.79,2,2,0,0,1-.5-1.45V40.26H235.1V55.55a2,2,0,0,1-.5,1.45,3.41,3.41,0,0,1-1.68.79v1h14.53v-1a3.68,3.68,0,0,1-1.7-.81,2,2,0,0,1-.48-1.43v-36a2,2,0,0,1,.48-1.43,3.58,3.58,0,0,1,1.7-.8v-1H232.92v1a3.28,3.28,0,0,1,1.7.79,2,2,0,0,1,.48,1.44V33.27H208.24V19.59a2,2,0,0,1,.48-1.44,3.32,3.32,0,0,1,1.71-.79v-1H195.89v1a3.58,3.58,0,0,1,1.71.8,2,2,0,0,1,.47,1.43v36A2,2,0,0,1,197.6,57a3.67,3.67,0,0,1-1.71.81v1h14.54Z"/><path class="cls-1" d="M303.38,62.44h-4L299,61.26a2.43,2.43,0,0,0-.33-.74,1.3,1.3,0,0,0-.53-.07h-44v-4l1.27-.32a2.74,2.74,0,0,0,.88-.33.85.85,0,0,0,0-.32V19.62a.82.82,0,0,0,0-.31,2.86,2.86,0,0,0-.89-.34l-1.26-.32V14.7h43.17a1.14,1.14,0,0,0,.52-.08,2,2,0,0,0,.34-.74l.37-1.17h4V27h-4l-.37-1.17a2.07,2.07,0,0,0-.34-.75,1.47,1.47,0,0,0-.52-.07H269.87v6.73h17.24a1.26,1.26,0,0,0,.53-.07A1.87,1.87,0,0,0,288,31l.36-1.18h4V43.82h-4L288,42.65a1.93,1.93,0,0,0-.36-.75,1.49,1.49,0,0,0-.51-.07H269.87v8.29h28.3a1.33,1.33,0,0,0,.53-.07,2,2,0,0,0,.33-.74l.36-1.18h4Z"/><path class="cls-2" d="M299.74,59.22a3.09,3.09,0,0,1,.88,1.55h1.1v-11h-1.1a3,3,0,0,1-.88,1.55,2.43,2.43,0,0,1-1.57.44h-30V40.17h18.91a2.43,2.43,0,0,1,1.57.45,3.23,3.23,0,0,1,.89,1.54h1.09V31.43h-1.09a3.16,3.16,0,0,1-.89,1.56,2.49,2.49,0,0,1-1.57.43H268.2V23.35h29.15a2.43,2.43,0,0,1,1.57.45,3.18,3.18,0,0,1,.89,1.54h1.09v-11h-1.09a3.22,3.22,0,0,1-.89,1.55,2.49,2.49,0,0,1-1.57.44h-41.5v1a3.67,3.67,0,0,1,1.71.8,2.08,2.08,0,0,1,.47,1.46v35.9a2.07,2.07,0,0,1-.47,1.46,3.67,3.67,0,0,1-1.71.81v1h42.32a2.49,2.49,0,0,1,1.57.44"/><path class="cls-1" d="M345.13,60.45v-4l1-.2a10.1,10.1,0,0,0-.73-.72l-23.3-21.92V55.52a1.42,1.42,0,0,0,0,.32,3.13,3.13,0,0,0,.89.33l1.26.32v4h-17v-4l1.26-.32a2.73,2.73,0,0,0,.89-.33.85.85,0,0,0,0-.32V19.59a1,1,0,0,0,0-.28,2.88,2.88,0,0,0-.9-.34l-1.26-.31v-4h19.17v4l-1.27.3a2.69,2.69,0,0,0,.24.24L348.3,40.89V19.59a1.05,1.05,0,0,0,0-.28,2.63,2.63,0,0,0-.89-.34l-1.26-.32V14.7h17v4l-1.26.31a3.32,3.32,0,0,0-.9.34,1.12,1.12,0,0,0,0,.28V55.52a1.15,1.15,0,0,0,0,.32,2.73,2.73,0,0,0,.89.33l1.26.32v4Z"/><path class="cls-2" d="M322.64,57.79a3.62,3.62,0,0,1-1.71-.81,2,2,0,0,1-.48-1.46V29.72l26.11,24.56c1.11,1,1.67,1.76,1.67,2.17,0,.7-.48,1.15-1.43,1.34v1h14.67v-1a3.67,3.67,0,0,1-1.71-.81,2.07,2.07,0,0,1-.47-1.46V19.59a2,2,0,0,1,.47-1.43,3.58,3.58,0,0,1,1.71-.8v-1H347.79v1a3.58,3.58,0,0,1,1.7.8,2,2,0,0,1,.48,1.43V44.77l-25.7-24.34a2.48,2.48,0,0,1-.95-1.64c0-.73.49-1.21,1.47-1.43v-1H309v1a3.58,3.58,0,0,1,1.71.8,2,2,0,0,1,.47,1.43V55.52a2.07,2.07,0,0,1-.47,1.46,3.67,3.67,0,0,1-1.71.81v1h13.69Z"/><path class="cls-1" d="M398.19,60.45H380.31v-4l1.26-.32a3,3,0,0,0,.9-.33,1.34,1.34,0,0,0,0-.32V25H369.7a1.3,1.3,0,0,0-.55.08,2.42,2.42,0,0,0-.32.72L368.48,27h-4V12.71h4l.38,1.14a2.36,2.36,0,0,0,.37.78,1.3,1.3,0,0,0,.51.07h39.07a1.43,1.43,0,0,0,.58-.08,2.43,2.43,0,0,0,.32-.73l.35-1.18h4V27h-4l-.36-1.19a2.45,2.45,0,0,0-.31-.73,1.91,1.91,0,0,0-.58-.07H396v30.5a.85.85,0,0,0,0,.32,2.76,2.76,0,0,0,.89.33l1.26.32Z"/><path class="cls-2" d="M383.69,57a3.67,3.67,0,0,1-1.71.81v1h14.54v-1a3.67,3.67,0,0,1-1.71-.81,2,2,0,0,1-.48-1.46V23.35h14.44a2.62,2.62,0,0,1,1.61.43,3.11,3.11,0,0,1,.88,1.56h1.09v-11h-1.09a3.06,3.06,0,0,1-.88,1.56,2.55,2.55,0,0,1-1.61.43H369.7a2.42,2.42,0,0,1-1.56-.43,3.3,3.3,0,0,1-.9-1.56h-1.09v11h1.09a3,3,0,0,1,.89-1.56,2.51,2.51,0,0,1,1.57-.43h14.47V55.52a2,2,0,0,1-.48,1.46"/><path class="cls-1" d="M415.33,60.45v-4l1.26-.32a3,3,0,0,0,.89-.33,1.34,1.34,0,0,0,0-.32V19.59a1.05,1.05,0,0,0,0-.28,3.17,3.17,0,0,0-.89-.34l-1.26-.32V14.7H433.2v4l-1.3.29a2.76,2.76,0,0,0-.85.3,1.23,1.23,0,0,0,0,.31V55.52a.8.8,0,0,0,0,.33,2.66,2.66,0,0,0,.85.32l1.29.3v4Z"/><path class="cls-2" d="M431.53,57.79a3.46,3.46,0,0,1-1.69-.79,2.07,2.07,0,0,1-.49-1.48V19.59a2,2,0,0,1,.48-1.44,3.24,3.24,0,0,1,1.7-.79v-1H417v1a3.58,3.58,0,0,1,1.7.8,2,2,0,0,1,.48,1.43V55.52A2,2,0,0,1,418.7,57a3.68,3.68,0,0,1-1.7.81v1h14.53Z"/><path class="cls-1" d="M466.21,61.19c-7.65,0-14-1.69-19-5a22.4,22.4,0,0,1-7.06-7.42,21.64,21.64,0,0,1-3-11.18,21.47,21.47,0,0,1,5.35-14.49C447.76,17,455.75,14,466.24,14a39,39,0,0,1,9.92,1.11,52.46,52.46,0,0,1,10.23,4.3,22.23,22.23,0,0,0,2.66,1.23,2.94,2.94,0,0,0,.52-.37l.93-.79,3.43,2.16-8.45,11.53-3.16-1.91.15-1.09a5.28,5.28,0,0,0,0-.61.86.86,0,0,0-.32-.46,12.14,12.14,0,0,0-2.66-1.64,26.07,26.07,0,0,0-12-2.92c-4.92,0-8.86,1.11-11.72,3.29a11.66,11.66,0,0,0-4.94,9.79,11.66,11.66,0,0,0,4.94,9.79c2.86,2.19,6.8,3.29,11.72,3.29a26,26,0,0,0,12-2.92,12.62,12.62,0,0,0,2.67-1.65.89.89,0,0,0,.32-.48,3.26,3.26,0,0,0,0-.56L482.32,44l3.14-2,8.47,11.54-3.43,2.17-.94-.79a2.64,2.64,0,0,0-.51-.37,21.13,21.13,0,0,0-2.65,1.26,52.38,52.38,0,0,1-10.22,4.29A39.1,39.1,0,0,1,466.21,61.19Z"/><path class="cls-2" d="M484.12,44.8a5,5,0,0,1,.07.8,2.33,2.33,0,0,1-.85,1.7,14.52,14.52,0,0,1-3,1.91,27.62,27.62,0,0,1-12.8,3.11q-8,0-12.73-3.63a13.32,13.32,0,0,1-5.59-11.12,13.3,13.3,0,0,1,5.59-11.11q4.75-3.63,12.73-3.63a27.72,27.72,0,0,1,12.8,3.09,14.12,14.12,0,0,1,3,1.91,2.3,2.3,0,0,1,.85,1.68,5.66,5.66,0,0,1-.07.84l.92.56,6.49-8.86-.89-.56a2.75,2.75,0,0,1-1.57.81,13.06,13.06,0,0,1-3.45-1.46,51.24,51.24,0,0,0-9.89-4.17,37.45,37.45,0,0,0-9.49-1.05q-15,0-22.49,8.54a19.76,19.76,0,0,0-4.95,13.4,20,20,0,0,0,2.77,10.35,20.6,20.6,0,0,0,6.55,6.86q7.06,4.75,18.09,4.76a37,37,0,0,0,9.53-1.08,49.43,49.43,0,0,0,9.88-4.16,12.91,12.91,0,0,1,3.45-1.49,2.75,2.75,0,0,1,1.57.81l.89-.56L485,44.21Z"/><path class="cls-1" d="M0,60.19,37.44,0h15L92.3,60.19Zm69.81-7.34L63.65,43H27l-5.8,9.88Zm-12-19.34L49.77,20.3c-2-3.18-3.58-6-4.88-8.46a57.31,57.31,0,0,1-3.77,7.51L32.53,33.51Z"/><path class="cls-2" d="M15.94,58.53H89.2L51.5,1.67H38.37L3,58.53H15.94Zm23.75-40a53.1,53.1,0,0,0,5-10.86,120,120,0,0,0,6.53,11.79L60.8,35.18H29.57ZM64.57,41.31l8.25,13.21H18.29l7.77-13.21Z"/><path class="cls-1" d="M33,73.23c.83.08,1.25.46,1.25,1.14A4.17,4.17,0,0,1,33.63,76L24.24,93.3,15,75.74a2.38,2.38,0,0,1-.35-1.14,1.33,1.33,0,0,1,1.17-1.37v-.8H2.71v.8A2.6,2.6,0,0,1,4,73.87,1.72,1.72,0,0,1,4.3,75v28.77A1.76,1.76,0,0,1,4,105a2.6,2.6,0,0,1-1.24.64v.8h10v-.8a2.55,2.55,0,0,1-1.24-.64,1.76,1.76,0,0,1-.35-1.17V82.93L23.62,106.4,36.85,82.93v20.86a1.75,1.75,0,0,1-.36,1.18,2.44,2.44,0,0,1-1.23.63v.8h10.6v-.8a2.59,2.59,0,0,1-1.25-.64,1.76,1.76,0,0,1-.34-1.17V75a1.72,1.72,0,0,1,.34-1.15,2.59,2.59,0,0,1,1.25-.64v-.8H33Z"/><path class="cls-1" d="M78.11,81.31A17.79,17.79,0,0,0,67,77.93a18.18,18.18,0,0,0-11,3.38,13.18,13.18,0,0,0-5.33,11.15A13.29,13.29,0,0,0,56,103.61a17.49,17.49,0,0,0,11,3.39,17.52,17.52,0,0,0,11-3.39,13.09,13.09,0,0,0,5.3-10.92q0-7.29-5.3-11.38m-4,17.62a9.37,9.37,0,0,1-7,2.79,9.4,9.4,0,0,1-7-2.79,9.62,9.62,0,0,1,0-13,9.44,9.44,0,0,1,7-2.76,9.75,9.75,0,0,1,7,2.76,8.93,8.93,0,0,1,2.52,6.62,8.67,8.67,0,0,1-2.52,6.34"/><path class="cls-1" d="M116.91,95.82V81.07a1.76,1.76,0,0,1,.35-1.19,2.5,2.5,0,0,1,1.24-.66v-.69h-9.28v.69a2.71,2.71,0,0,1,1.26.68,1.78,1.78,0,0,1,.33,1.17V94.48a12.19,12.19,0,0,1-.4,3.58,4.16,4.16,0,0,1-1.39,2,9.32,9.32,0,0,1-5.9,1.62,9.32,9.32,0,0,1-5.9-1.62,4.23,4.23,0,0,1-1.43-2,12.13,12.13,0,0,1-.41-3.58V81.07a1.87,1.87,0,0,1,.34-1.19A2.54,2.54,0,0,1,97,79.22v-.69H87.12v.69a2.67,2.67,0,0,1,1.24.68,1.67,1.67,0,0,1,.35,1.17V95.82a15.1,15.1,0,0,0,.9,5.6,7.1,7.1,0,0,0,3.61,3.76,21.7,21.7,0,0,0,9.6,1.82q8.9,0,12.1-3.76,2-2.37,2-7.42"/><path class="cls-1" d="M147.92,101a1.87,1.87,0,0,1-1.2.34h-15.6V81.07a1.76,1.76,0,0,1,.35-1.19,2.5,2.5,0,0,1,1.24-.66v-.69h-9.85v.69a2.73,2.73,0,0,1,1.24.68,1.72,1.72,0,0,1,.35,1.17v22.79a1.81,1.81,0,0,1-.36,1.2,2.37,2.37,0,0,1-1.23.64v.7h23.86a1.84,1.84,0,0,1,1.21.35,2.55,2.55,0,0,1,.66,1.24h.67V99.75h-.67a2.71,2.71,0,0,1-.67,1.26"/><path class="cls-1" d="M153.35,105.06a2.37,2.37,0,0,1-1.23.64v.7h16.35a23.9,23.9,0,0,0,6.49-.74,11.68,11.68,0,0,0,4.51-2.37c2.84-2.46,4.26-6.06,4.26-10.83a16.54,16.54,0,0,0-1.27-6.74,11.12,11.12,0,0,0-6-5.92,20.66,20.66,0,0,0-8-1.27H152.12v.69a2.77,2.77,0,0,1,1.25.68,1.71,1.71,0,0,1,.34,1.16v22.8a1.81,1.81,0,0,1-.36,1.2m7-21.48h7.12a14.67,14.67,0,0,1,4.28.53,6.75,6.75,0,0,1,2.84,1.71,9,9,0,0,1,2.31,6.64,9.07,9.07,0,0,1-2.31,6.65q-2.22,2.23-7.12,2.24h-7.12Z"/><path class="cls-1" d="M188,79.22a2.72,2.72,0,0,1,1.25.68,1.72,1.72,0,0,1,.35,1.17v22.79a1.81,1.81,0,0,1-.36,1.2,2.4,2.4,0,0,1-1.24.64v.7h9.86v-.7a2.59,2.59,0,0,1-1.24-.68,1.73,1.73,0,0,1-.35-1.18V81.06a1.75,1.75,0,0,1,.35-1.18,2.5,2.5,0,0,1,1.24-.66v-.69H188Z"/><path class="cls-1" d="M210.41,103.84V88l14.8,14.59c.71.72,1.17,1.21,1.37,1.45a1.17,1.17,0,0,1,.3.72c0,.46-.37.77-1.1.91v.7h10v-.7a2.68,2.68,0,0,1-1.25-.68,1.79,1.79,0,0,1-.35-1.18V81.06a1.8,1.8,0,0,1,.35-1.18,2.59,2.59,0,0,1,1.25-.66v-.69h-9.26v.69a2.55,2.55,0,0,1,1.24.66,1.82,1.82,0,0,1,.35,1.19V96.42L213.15,81.59a2.2,2.2,0,0,1-.8-1.4c0-.46.37-.78,1.1-1v-.69H202.74v.69a2.77,2.77,0,0,1,1.25.68,1.72,1.72,0,0,1,.34,1.17v22.79a1.81,1.81,0,0,1-.36,1.2,2.37,2.37,0,0,1-1.23.64v.7H212v-.7a2.45,2.45,0,0,1-1.23-.67,1.78,1.78,0,0,1-.36-1.19"/><path class="cls-1" d="M272.7,102a2.53,2.53,0,0,1-1.23-.67,1.79,1.79,0,0,1-.37-1.2V94.23a2.16,2.16,0,0,1,.37-1.34,2.28,2.28,0,0,1,1.23-.73v-.72H259.43a1.81,1.81,0,0,1-1.2-.35,2.52,2.52,0,0,1-.67-1.24h-.67v7.39h.67a2.43,2.43,0,0,1,.67-1.24,1.76,1.76,0,0,1,1.2-.35h6.35V99.9a17,17,0,0,1-8.24,1.82q-5.13,0-8-2.51a8.39,8.39,0,0,1-2.76-6.57,8.68,8.68,0,0,1,3-7,11,11,0,0,1,7.38-2.46A15.32,15.32,0,0,1,264.55,85c1.23.65,1.84,1.28,1.84,1.89v.15l.59.3,3.33-7-.6-.32a1.79,1.79,0,0,1-1,.4,13.64,13.64,0,0,1-2.42-.7A29,29,0,0,0,257,77.93q-9.26,0-14,5.92a13.71,13.71,0,0,0-3,8.76,14.1,14.1,0,0,0,5.4,11.13q4.28,3.26,11.2,3.26a33,33,0,0,0,16.08-4.46Z"/><path class="cls-1" d="M315.34,92.16a10.92,10.92,0,0,0-4-4.72,13.12,13.12,0,0,0,3.52-3.34,6.82,6.82,0,0,0,1-3.76,7.08,7.08,0,0,0-3.37-6.22,14.13,14.13,0,0,0-8-2.29,13.65,13.65,0,0,0-7.24,1.92,7.27,7.27,0,0,0-3.88,6.44q0,3.5,3.36,6.42-7.57,3.72-7.57,10.11a9,9,0,0,0,4.06,7.69,15,15,0,0,0,9,2.59,16.61,16.61,0,0,0,12-4.93,15.92,15.92,0,0,0,3.62,2.84,8.83,8.83,0,0,0,3.53,1.32c2.45.14,3.91.27,4.38.37V98.76h-.8a1.29,1.29,0,0,1-1.35,1.19,4.55,4.55,0,0,1-2.32-.66,13.76,13.76,0,0,1-2.68-2.22,9.13,9.13,0,0,1,2-3.51,9.93,9.93,0,0,1,1.92-1.65,3.67,3.67,0,0,1,1.64-.72c.4,0,.65.42.75,1.25h.8V83a14.18,14.18,0,0,0-5.7,3,25,25,0,0,0-4.67,6.15m-14-14.35a5.89,5.89,0,0,1,3.31-.93,5.71,5.71,0,0,1,3.73,1.23,3.87,3.87,0,0,1,1.42,3.12A3.75,3.75,0,0,1,308,84.52a5.93,5.93,0,0,1-3.33.93A5.56,5.56,0,0,1,301,84.23a4,4,0,0,1,.37-6.42m7.16,21.8a9.11,9.11,0,0,1-5.42,1.59A7.65,7.65,0,0,1,298,99.55a5.23,5.23,0,0,1-2-4.2,5,5,0,0,1,2-4.06,7.52,7.52,0,0,1,4.83-1.61,8.4,8.4,0,0,1,5.45,1.89A6.66,6.66,0,0,1,310,93.62a4.78,4.78,0,0,1,.69,2.25,4.52,4.52,0,0,1-2.25,3.74"/><path class="cls-1" d="M371.37,73.85q-3.35-1.42-9.57-1.42H342.85v.8a2.59,2.59,0,0,1,1.25.64,1.76,1.76,0,0,1,.34,1.17v28.75a1.76,1.76,0,0,1-.34,1.17,2.59,2.59,0,0,1-1.25.64v.8H361.8a30.27,30.27,0,0,0,7.75-.83,13.55,13.55,0,0,0,5.3-2.78q5.4-4.61,5.41-13.39a19.76,19.76,0,0,0-1.82-8.73,13.67,13.67,0,0,0-7.07-6.82m-3.49,25.73a14.46,14.46,0,0,1-6.7,1.22h-9.32V78h9.32a17.75,17.75,0,0,1,5.43.68A8.12,8.12,0,0,1,370.1,81c1.73,1.95,2.59,4.74,2.59,8.39q0,7.57-4.81,10.18"/><path class="cls-1" d="M417,92.69q0-7.29-5.31-11.38a17.76,17.76,0,0,0-11.08-3.38,18.18,18.18,0,0,0-11,3.38,13.16,13.16,0,0,0-5.33,11.15,13.27,13.27,0,0,0,5.33,11.15,19.64,19.64,0,0,0,22.06,0A13.07,13.07,0,0,0,417,92.69m-9.31,6.24a10.28,10.28,0,0,1-14.08,0,9.59,9.59,0,0,1,0-13,9.42,9.42,0,0,1,7-2.76A9.75,9.75,0,0,1,407.73,86a9,9,0,0,1,2.51,6.62,8.7,8.7,0,0,1-2.51,6.34"/><path class="cls-1" d="M448.07,81.31A17.79,17.79,0,0,0,437,77.93a18.18,18.18,0,0,0-11,3.38,13.18,13.18,0,0,0-5.33,11.15A13.29,13.29,0,0,0,426,103.61a19.66,19.66,0,0,0,22.07,0,13.09,13.09,0,0,0,5.3-10.92q0-7.29-5.3-11.38m-4,17.62a10.28,10.28,0,0,1-14.08,0,9.62,9.62,0,0,1,0-13,9.42,9.42,0,0,1,7-2.76A9.75,9.75,0,0,1,444.06,86a8.93,8.93,0,0,1,2.52,6.62,8.67,8.67,0,0,1-2.52,6.34"/><path class="cls-1" d="M485.1,102l-5.27-7.35a11.39,11.39,0,0,0,6-2.75,7.22,7.22,0,0,0,1.85-5.29c0-3-1-5.1-3-6.42a9.31,9.31,0,0,0-3.33-1.3,29.8,29.8,0,0,0-5.43-.36H457.63v.69a2.67,2.67,0,0,1,1.24.68,1.72,1.72,0,0,1,.35,1.17v22.79a1.81,1.81,0,0,1-.36,1.2,2.37,2.37,0,0,1-1.23.64v.7h9.85v-.7a2.64,2.64,0,0,1-1.24-.68,1.79,1.79,0,0,1-.35-1.18V95h6.68l5.56,8a3.42,3.42,0,0,1,.8,1.67q0,.76-1.29,1.11v.7h11.72v-.7a4.06,4.06,0,0,1-2-.93,16.33,16.33,0,0,1-2.3-2.77m-9.16-12.1H465.89V83.58h10.05a7.52,7.52,0,0,1,3.85.7,2.69,2.69,0,0,1,1.08,2.46,2.61,2.61,0,0,1-1.54,2.66,8.69,8.69,0,0,1-3.39.5"/><path class="cls-1" d="M22.57,128l2.09-4.12-.36-.2a1.06,1.06,0,0,1-.62.3,3.85,3.85,0,0,1-.91-.3,25,25,0,0,0-3.62-1.25,13.47,13.47,0,0,0-3.13-.34q-4,0-6,1.91a4.84,4.84,0,0,0-1.53,3.67A4.65,4.65,0,0,0,9.1,130a4.35,4.35,0,0,0,1.84,1.74,7,7,0,0,0,1.64.59,23.74,23.74,0,0,0,2.8.39l2,.21a12.32,12.32,0,0,1,2.64.47,1.28,1.28,0,0,1,.93,1.24,1.83,1.83,0,0,1-.39,1.11,2.85,2.85,0,0,1-1.07.85,6.74,6.74,0,0,1-2.91.58,11.14,11.14,0,0,1-3.3-.54,7.09,7.09,0,0,1-2.58-1.28,1.41,1.41,0,0,1-.55-1.07v-.17L9.76,134l-1.9,4.3.37.19a1.07,1.07,0,0,1,.53-.28,3.76,3.76,0,0,1,.86.33,15.36,15.36,0,0,0,6.85,1.67,13.67,13.67,0,0,0,3.63-.47,6.46,6.46,0,0,0,3.35-1.94,5,5,0,0,0,1.19-3.28,4.89,4.89,0,0,0-.51-2.19,4.46,4.46,0,0,0-1.38-1.65,6.7,6.7,0,0,0-2-.93,16,16,0,0,0-2.91-.53l-2-.2a18.83,18.83,0,0,1-2.64-.39c-.8-.24-1.19-.69-1.19-1.34a1.6,1.6,0,0,1,.47-1.12,3,3,0,0,1,1.22-.77,8.24,8.24,0,0,1,2.4-.33,9.11,9.11,0,0,1,5.35,1.59c.5.33.75.65.75.94l0,.2Z"/><path class="cls-1" d="M73.57,122.78a1.23,1.23,0,0,1,.64.33.9.9,0,0,1,.18.6v8.73a10.3,10.3,0,0,1-.17,2.24,2.62,2.62,0,0,1-.61,1.21c-.82.87-2.23,1.31-4.22,1.31s-3.38-.44-4.2-1.31a2.56,2.56,0,0,1-.63-1.21,11,11,0,0,1-.17-2.24v-8.73a.89.89,0,0,1,.19-.61,1.16,1.16,0,0,1,.63-.32v-.41H59.75v.41a1.23,1.23,0,0,1,.64.33.9.9,0,0,1,.18.6v9.81a9.3,9.3,0,0,0,.49,3.17,4.06,4.06,0,0,0,1.8,2.13,12.35,12.35,0,0,0,6.39,1.35c3.85,0,6.4-.83,7.63-2.49a7,7,0,0,0,1-4.16v-9.81a.9.9,0,0,1,.18-.6,1.23,1.23,0,0,1,.64-.33v-.41H73.57Z"/><path class="cls-1" d="M130.26,123.51a5.4,5.4,0,0,0-2-.89,14.34,14.34,0,0,0-3-.25H114.33v.41a1.27,1.27,0,0,1,.64.33.9.9,0,0,1,.18.6v14.82a.87.87,0,0,1-.18.59,1.27,1.27,0,0,1-.64.33v.41h5.46v-.41a1.24,1.24,0,0,1-.64-.33.87.87,0,0,1-.18-.59v-5.77h6.28a11.7,11.7,0,0,0,3.77-.48,4.46,4.46,0,0,0,2.17-1.62,5.16,5.16,0,0,0,.95-3.1,5.45,5.45,0,0,0-.5-2.33,4.29,4.29,0,0,0-1.38-1.72M128,128.73a1.79,1.79,0,0,1-.73.78,5.8,5.8,0,0,1-2.44.37H119v-4.63h5.83a5.58,5.58,0,0,1,2.44.37,1.79,1.79,0,0,1,.73.78,2.51,2.51,0,0,1,.27,1.16,2.55,2.55,0,0,1-.27,1.17"/><path class="cls-1" d="M183.15,123.51a5.26,5.26,0,0,0-2-.89,14.34,14.34,0,0,0-3-.25H167.22v.41a1.23,1.23,0,0,1,.64.33.9.9,0,0,1,.18.6v14.82a.87.87,0,0,1-.18.59,1.23,1.23,0,0,1-.64.33v.41h5.46v-.41a1.24,1.24,0,0,1-.64-.33.87.87,0,0,1-.18-.59v-5.77h6.28a11.7,11.7,0,0,0,3.77-.48,4.41,4.41,0,0,0,2.17-1.62,5.16,5.16,0,0,0,.95-3.1,5.45,5.45,0,0,0-.5-2.33,4.29,4.29,0,0,0-1.38-1.72m-2.29,5.22a1.77,1.77,0,0,1-.72.78,5.85,5.85,0,0,1-2.45.37h-5.83v-4.63h5.83a5.63,5.63,0,0,1,2.45.37,1.77,1.77,0,0,1,.72.78,2.4,2.4,0,0,1,.28,1.16,2.44,2.44,0,0,1-.28,1.17"/><path class="cls-1" d="M236.11,136.8a.91.91,0,0,1-.61.18H224.75V123.71a.94.94,0,0,1,.18-.61,1.16,1.16,0,0,1,.64-.32v-.41h-5.46v.41a1.23,1.23,0,0,1,.64.33.9.9,0,0,1,.18.6v14.81a.9.9,0,0,1-.18.6,1.23,1.23,0,0,1-.64.33v.41H235.5a.91.91,0,0,1,.61.18,1.4,1.4,0,0,1,.33.64h.41v-4.52h-.41a1.46,1.46,0,0,1-.33.64"/><path class="cls-1" d="M279.93,122.78a1.14,1.14,0,0,1,.62.27.65.65,0,0,1,.24.51,2.51,2.51,0,0,1-.53,1L277,129.26l-3.16-4.68a2.75,2.75,0,0,1-.52-1c0-.44.28-.7.86-.79v-.41h-6.91v.41a1.85,1.85,0,0,1,1,.43,8,8,0,0,1,1.15,1.37l5.65,8v6a.85.85,0,0,1-.19.6,1.36,1.36,0,0,1-.65.33v.41h5.48v-.41a1.32,1.32,0,0,1-.64-.33.9.9,0,0,1-.18-.6v-6l5.65-8a8,8,0,0,1,1.15-1.37,1.85,1.85,0,0,1,1-.43v-.41h-6.76Z"/><path class="cls-1" d="M376.1,136.8a.9.9,0,0,1-.6.18H364.74V123.71a.94.94,0,0,1,.18-.61,1.23,1.23,0,0,1,.65-.32v-.41h-5.46v.41a1.27,1.27,0,0,1,.64.33.89.89,0,0,1,.17.6v14.81a.89.89,0,0,1-.17.6,1.27,1.27,0,0,1-.64.33v.41H375.5a.9.9,0,0,1,.6.18,1.23,1.23,0,0,1,.33.64h.41v-4.52h-.41a1.27,1.27,0,0,1-.33.64"/><path class="cls-1" d="M427.48,136.8a.88.88,0,0,1-.6.18H416.13V123.71a.94.94,0,0,1,.18-.61,1.13,1.13,0,0,1,.64-.32v-.41h-5.46v.41a1.27,1.27,0,0,1,.64.33.9.9,0,0,1,.18.6v14.81a.9.9,0,0,1-.18.6,1.27,1.27,0,0,1-.64.33v.41h15.39a.88.88,0,0,1,.6.18,1.23,1.23,0,0,1,.33.64h.42v-4.52h-.42a1.27,1.27,0,0,1-.33.64"/><path class="cls-1" d="M479.53,128.36l2.43-3.65-.33-.23a1,1,0,0,1-.59.34,4.88,4.88,0,0,1-1.29-.61A18.39,18.39,0,0,0,476,122.5a12.77,12.77,0,0,0-3.56-.44q-5.66,0-8.45,3.52a8.65,8.65,0,0,0-1.86,5.53,8.93,8.93,0,0,0,1,4.27,8.35,8.35,0,0,0,2.46,2.83,11.17,11.17,0,0,0,6.79,2,12.65,12.65,0,0,0,3.59-.45,17.64,17.64,0,0,0,3.71-1.71,4.72,4.72,0,0,1,1.29-.62,1,1,0,0,1,.59.34l.33-.23-2.43-3.65-.35.24,0,.34a1,1,0,0,1-.32.69,5.12,5.12,0,0,1-1.14.79,9.61,9.61,0,0,1-4.81,1.29,7.24,7.24,0,0,1-4.78-1.5,6.06,6.06,0,0,1,0-9.17,7.18,7.18,0,0,1,4.78-1.5,9.71,9.71,0,0,1,4.81,1.28,6,6,0,0,1,1.14.78,1,1,0,0,1,.32.7l0,.34Z"/><path class="cls-1" d="M487.15,246.47l.06-1.46-.09-1-3.12-.54.11-1,1.74,0,0-.68,1.18-.3.27-.86,1.09-.23-.86-6.26s4-3.5,3.85-3.5-2.4-2.17-2.4-2.17l-2.22,1.36-2.44-3.56h-2.18l-1.57-1.57,1.28-1.06L482,222l2.31-.23-2.13-.48,2.13-.95-2.76-.07,1.58-1.39-2.58,1-.22-1.76-1.09,1.66-.72,0-1.54-.95.76,1.66-1.63-.17v-1.24l-.38-.15-.16-4.52-1-1.07,0-.22,1.85,0v-1.25l-.45-.45-1.36-.07-.13-.36,1.49-.14v-1l-.5-.6,0-.49-.55-.48.78-1.22v-.88l-3.13,3.07v1.28l.54.48.14.3h-.55l-.54.54v1.36l.82.34V215h1v1.58l-1.68,5.74v2.28l1,.6v2.52l.81,1.31-.81,3.37v1.32h.93l.15.63-.12,2.73H475l0,3-.75,2.15v2.08c-8.44-1-67.51-1.84-76-2.67v-1.4l-1.45.33a3.69,3.69,0,0,0-1.92-2.1v-19h-9.06v14h-.62v5.88l-.36.26h-2.44V185.58l-11.49-.11V229a11.82,11.82,0,0,0-3,.73v-39.6l-8.44-6.34-10.13,6.24.12,34a11.22,11.22,0,0,0-4,.34V160.25l-5.67-.05-.1-.88,4.43,0,1.34-.47v-.74l-1.07-.65-4.79-.08-.78-24.87L338,157.42h-5l-1.07.58.1.88,1.17.44H338v.7h-6.52v61.69l-2.4-1.55-3.91,3.3v4H324V236l-3.83-.22V219.06H317.4v-6.81h-5.29v6.81h-.69v6.13h-8.27v1l-1.84,0v.34h-.73V222h-1.51V219.9H288.62v10.4h-3.81v3.87l-9.85-.32v-2.52l-2.69-12.27-2.68,12.27v2.38l-.92,0V216.43h-14v4.45h-2v8.9h-.62l-1-3.6-1.3,3.6h-3.53v-8.19h-2.66v1.71H236V222h-3.61v1.85h-2.66v-1.42h-2.85v7.42a26.13,26.13,0,0,1-3.35,0,16.27,16.27,0,0,1,0,3.26h-3.9v-1.6l-2-2.75-1.95,3.3v1.06h-1.45V217.35h-10v3.24h-1.11v6.95h-3.61v-9.8h-6.41v-7.89h-8.14v3.89H177v15.4h-.75v4.6h-.74V187.69h-1.49v-7.95h-1.5v-3.36h-1.49v-1.33h-1.63v-1.84l-1.36.21v-.92l-.81-.1s-.08-7.75,0-9.17c.08-1.6-2.15-1.75-2.15-1.75v-4.06h-.68v4c-2.61.08-2.74,1.58-2.74,1.58v10.19h-2v1.64H158v1.63l-1.63.1v2.85l-1.22.1v8.06h-.82v40.53l-1.25.75v.82H153V232h-1.77V209.17H142.9v24.55h-.36l-3.91-2.93v-19.9h-2.47v-1.72h-6.5V197.64h-5.77v23.81H118.5V201.34h-7V232h-1.77v-1.86l-2.87.11v-2.59h-.17V226H104v-1.42h-.85V211H93.54v12.46H91.65V211H83v10.32H80.28v4.23l-1-.43-1.23,1.07v1.67l-1.21.19v9.14H75v-29l-.82-.62V204.4l-1.66-1.24v-7.29l-2.32-1.67v-2.28l-.35-.34v-1.87l-.63-.4V186.9l-.89-.14v-2.41l-.36-.2v-1.54l-.53-.33v-1.41l-.71-1.14,0-10.85v.2l-.33,10.65h-.45v2l-1.29,2.08v1.77l-1.38,1v2.28h-.92v2.46l-.64.48v2l-.5.37v2.07h-.52v7.12H59.3v1.82H57.75v30.7H55.89v-1.64H54.81V219.06H37.35v19.26c-1.36.07-2.69.06-2.69-.21V241l-.76.57V232H29v10H26.49V229.58H14.89v15c-1,.12-2,.19-2.94.31v-7.15H.51v8.68Z"/></svg>